<svg id="visual" viewBox="0 0 900 600" width="900" height="600" xmlns="http://www.w3.org/2000/svg" xmlns:xlink="http://www.w3.org/1999/xlink" version="1.1"><g stroke-width="1" stroke-linejoin="bevel"><path d="M409 337L405 368L476 373Z" fill="#1d4e6b" stroke="#1d4e6b"></path><path d="M476 373L500 339L409 337Z" fill="#081a28" stroke="#081a28"></path><path d="M409 337L334 381L405 368Z" fill="#246688" stroke="#246688"></path><path d="M474 519L584 421L476 373Z" fill="#081a28" stroke="#081a28"></path><path d="M500 339L466 226L409 337Z" fill="#297ea6" stroke="#297ea6"></path><path d="M409 337L309 310L334 381Z" fill="#081a28" stroke="#081a28"></path><path d="M322 205L309 310L409 337Z" fill="#0c2435" stroke="#0c2435"></path><path d="M474 519L476 373L405 368Z" fill="#15384f" stroke="#15384f"></path><path d="M476 373L584 421L500 339Z" fill="#081a28" stroke="#081a28"></path><path d="M500 339L607 279L466 226Z" fill="#297ea6" stroke="#297ea6"></path><path d="M363 518L474 519L405 368Z" fill="#081a28" stroke="#081a28"></path><path d="M467 84L439 180L574 96Z" fill="#0c2435" stroke="#0c2435"></path><path d="M466 226L322 205L409 337Z" fill="#277297" stroke="#277297"></path><path d="M280 482L363 518L334 381Z" fill="#00101c" stroke="#00101c"></path><path d="M334 381L363 518L405 368Z" fill="#205a7a" stroke="#205a7a"></path><path d="M584 421L607 279L500 339Z" fill="#205a7a" stroke="#205a7a"></path><path d="M439 180L322 205L466 226Z" fill="#15384f" stroke="#15384f"></path><path d="M188 386L334 381L309 310Z" fill="#246688" stroke="#246688"></path><path d="M188 386L280 482L334 381Z" fill="#277297" stroke="#277297"></path><path d="M474 519L597 496L584 421Z" fill="#0c2435" stroke="#0c2435"></path><path d="M584 421L698 339L607 279Z" fill="#246688" stroke="#246688"></path><path d="M698 339L614 230L607 279Z" fill="#081a28" stroke="#081a28"></path><path d="M607 279L614 230L466 226Z" fill="#15384f" stroke="#15384f"></path><path d="M322 205L239 262L309 310Z" fill="#19435d" stroke="#19435d"></path><path d="M363 518L418 600L474 519Z" fill="#1d4e6b" stroke="#1d4e6b"></path><path d="M474 519L537 600L597 496Z" fill="#112e42" stroke="#112e42"></path><path d="M313 600L418 600L363 518Z" fill="#0c2435" stroke="#0c2435"></path><path d="M239 262L188 386L309 310Z" fill="#00101c" stroke="#00101c"></path><path d="M737 433L698 339L584 421Z" fill="#246688" stroke="#246688"></path><path d="M418 600L537 600L474 519Z" fill="#205a7a" stroke="#205a7a"></path><path d="M597 496L737 433L584 421Z" fill="#081a28" stroke="#081a28"></path><path d="M574 96L439 180L466 226Z" fill="#1d4e6b" stroke="#1d4e6b"></path><path d="M439 180L389 69L322 205Z" fill="#15384f" stroke="#15384f"></path><path d="M209 117L164 226L239 262Z" fill="#00101c" stroke="#00101c"></path><path d="M212 600L313 600L280 482Z" fill="#19435d" stroke="#19435d"></path><path d="M280 482L313 600L363 518Z" fill="#1d4e6b" stroke="#1d4e6b"></path><path d="M537 600L587 600L597 496Z" fill="#297ea6" stroke="#297ea6"></path><path d="M731 201L574 96L614 230Z" fill="#112e42" stroke="#112e42"></path><path d="M614 230L574 96L466 226Z" fill="#246688" stroke="#246688"></path><path d="M414 0L389 69L467 84Z" fill="#1d4e6b" stroke="#1d4e6b"></path><path d="M467 84L389 69L439 180Z" fill="#00101c" stroke="#00101c"></path><path d="M389 69L307 88L322 205Z" fill="#1d4e6b" stroke="#1d4e6b"></path><path d="M239 262L127 365L188 386Z" fill="#1d4e6b" stroke="#1d4e6b"></path><path d="M712 529L737 433L597 496Z" fill="#00101c" stroke="#00101c"></path><path d="M209 117L239 262L322 205Z" fill="#112e42" stroke="#112e42"></path><path d="M164 226L127 365L239 262Z" fill="#277297" stroke="#277297"></path><path d="M188 386L172 534L280 482Z" fill="#1d4e6b" stroke="#1d4e6b"></path><path d="M587 600L712 529L597 496Z" fill="#00101c" stroke="#00101c"></path><path d="M126 471L172 534L188 386Z" fill="#1d4e6b" stroke="#1d4e6b"></path><path d="M698 339L731 201L614 230Z" fill="#081a28" stroke="#081a28"></path><path d="M805 333L731 201L698 339Z" fill="#15384f" stroke="#15384f"></path><path d="M307 88L209 117L322 205Z" fill="#081a28" stroke="#081a28"></path><path d="M172 534L212 600L280 482Z" fill="#1d4e6b" stroke="#1d4e6b"></path><path d="M127 365L126 471L188 386Z" fill="#19435d" stroke="#19435d"></path><path d="M172 534L120 600L212 600Z" fill="#277297" stroke="#277297"></path><path d="M765 539L794 404L737 433Z" fill="#246688" stroke="#246688"></path><path d="M737 433L794 404L698 339Z" fill="#19435d" stroke="#19435d"></path><path d="M502 0L414 0L467 84Z" fill="#00101c" stroke="#00101c"></path><path d="M389 69L277 0L307 88Z" fill="#0c2435" stroke="#0c2435"></path><path d="M307 88L277 0L209 117Z" fill="#0c2435" stroke="#0c2435"></path><path d="M96 184L87 284L164 226Z" fill="#00101c" stroke="#00101c"></path><path d="M164 226L87 284L127 365Z" fill="#00101c" stroke="#00101c"></path><path d="M127 365L0 405L126 471Z" fill="#19435d" stroke="#19435d"></path><path d="M574 96L502 0L467 84Z" fill="#081a28" stroke="#081a28"></path><path d="M586 0L502 0L574 96Z" fill="#15384f" stroke="#15384f"></path><path d="M794 404L805 333L698 339Z" fill="#246688" stroke="#246688"></path><path d="M730 600L765 539L712 529Z" fill="#112e42" stroke="#112e42"></path><path d="M712 529L765 539L737 433Z" fill="#19435d" stroke="#19435d"></path><path d="M587 600L730 600L712 529Z" fill="#297ea6" stroke="#297ea6"></path><path d="M662 0L586 0L574 96Z" fill="#081a28" stroke="#081a28"></path><path d="M209 117L96 184L164 226Z" fill="#15384f" stroke="#15384f"></path><path d="M414 0L277 0L389 69Z" fill="#081a28" stroke="#081a28"></path><path d="M209 117L129 71L96 184Z" fill="#19435d" stroke="#19435d"></path><path d="M819 132L737 89L731 201Z" fill="#19435d" stroke="#19435d"></path><path d="M731 201L737 89L574 96Z" fill="#1d4e6b" stroke="#1d4e6b"></path><path d="M0 528L120 600L126 471Z" fill="#0c2435" stroke="#0c2435"></path><path d="M126 471L120 600L172 534Z" fill="#1d4e6b" stroke="#1d4e6b"></path><path d="M737 89L662 0L574 96Z" fill="#277297" stroke="#277297"></path><path d="M178 0L129 71L209 117Z" fill="#112e42" stroke="#112e42"></path><path d="M805 333L832 185L731 201Z" fill="#0c2435" stroke="#0c2435"></path><path d="M737 89L796 0L662 0Z" fill="#205a7a" stroke="#205a7a"></path><path d="M900 269L832 185L805 333Z" fill="#0c2435" stroke="#0c2435"></path><path d="M832 185L819 132L731 201Z" fill="#277297" stroke="#277297"></path><path d="M277 0L178 0L209 117Z" fill="#00101c" stroke="#00101c"></path><path d="M0 222L0 312L87 284Z" fill="#00101c" stroke="#00101c"></path><path d="M87 284L0 312L127 365Z" fill="#19435d" stroke="#19435d"></path><path d="M0 222L87 284L96 184Z" fill="#246688" stroke="#246688"></path><path d="M0 312L0 405L127 365Z" fill="#0c2435" stroke="#0c2435"></path><path d="M730 600L828 600L765 539Z" fill="#1d4e6b" stroke="#1d4e6b"></path><path d="M900 490L900 414L794 404Z" fill="#1d4e6b" stroke="#1d4e6b"></path><path d="M794 404L900 414L805 333Z" fill="#112e42" stroke="#112e42"></path><path d="M0 63L0 222L96 184Z" fill="#19435d" stroke="#19435d"></path><path d="M0 63L96 184L129 71Z" fill="#205a7a" stroke="#205a7a"></path><path d="M900 490L794 404L765 539Z" fill="#15384f" stroke="#15384f"></path><path d="M832 185L900 170L819 132Z" fill="#081a28" stroke="#081a28"></path><path d="M900 414L900 269L805 333Z" fill="#205a7a" stroke="#205a7a"></path><path d="M0 405L0 528L126 471Z" fill="#205a7a" stroke="#205a7a"></path><path d="M828 600L900 490L765 539Z" fill="#297ea6" stroke="#297ea6"></path><path d="M178 0L111 0L129 71Z" fill="#112e42" stroke="#112e42"></path><path d="M900 269L900 170L832 185Z" fill="#0c2435" stroke="#0c2435"></path><path d="M819 132L796 0L737 89Z" fill="#00101c" stroke="#00101c"></path><path d="M900 99L796 0L819 132Z" fill="#0c2435" stroke="#0c2435"></path><path d="M0 528L0 600L120 600Z" fill="#205a7a" stroke="#205a7a"></path><path d="M828 600L900 600L900 490Z" fill="#205a7a" stroke="#205a7a"></path><path d="M900 170L900 99L819 132Z" fill="#277297" stroke="#277297"></path><path d="M111 0L0 63L129 71Z" fill="#19435d" stroke="#19435d"></path><path d="M111 0L0 0L0 63Z" fill="#15384f" stroke="#15384f"></path><path d="M900 99L900 0L796 0Z" fill="#277297" stroke="#277297"></path></g></svg>